<mxfile host="app.diagrams.net" modified="2022-01-08T11:17:04.529Z" agent="5.0 (Windows)" etag="RD4IoQqoiSnNcikQgn2B" version="14.6.9" type="github">
  <diagram id="R2lEEEUBdFMjLlhIrx00" name="Page-1">
    <mxGraphModel dx="1422" dy="780" grid="1" gridSize="10" guides="1" tooltips="1" connect="1" arrows="1" fold="1" page="1" pageScale="1" pageWidth="850" pageHeight="1100" math="0" shadow="0" extFonts="Permanent Marker^https://fonts.googleapis.com/css?family=Permanent+Marker">
      <root>
        <mxCell id="0" />
        <mxCell id="1" parent="0" />
        <mxCell id="HPaEPrHGVp7n7yQ_XCSC-5" value="User" style="shape=table;startSize=30;container=1;collapsible=1;childLayout=tableLayout;fixedRows=1;rowLines=0;fontStyle=1;align=center;resizeLast=1;" vertex="1" parent="1">
          <mxGeometry x="30" y="30" width="180" height="240" as="geometry" />
        </mxCell>
        <mxCell id="HPaEPrHGVp7n7yQ_XCSC-6" value="" style="shape=partialRectangle;collapsible=0;dropTarget=0;pointerEvents=0;fillColor=none;top=0;left=0;bottom=1;right=0;points=[[0,0.5],[1,0.5]];portConstraint=eastwest;" vertex="1" parent="HPaEPrHGVp7n7yQ_XCSC-5">
          <mxGeometry y="30" width="180" height="30" as="geometry" />
        </mxCell>
        <mxCell id="HPaEPrHGVp7n7yQ_XCSC-7" value="PK" style="shape=partialRectangle;connectable=0;fillColor=none;top=0;left=0;bottom=0;right=0;fontStyle=1;overflow=hidden;" vertex="1" parent="HPaEPrHGVp7n7yQ_XCSC-6">
          <mxGeometry width="30" height="30" as="geometry" />
        </mxCell>
        <mxCell id="HPaEPrHGVp7n7yQ_XCSC-8" value="UniqueID" style="shape=partialRectangle;connectable=0;fillColor=none;top=0;left=0;bottom=0;right=0;align=left;spacingLeft=6;fontStyle=5;overflow=hidden;" vertex="1" parent="HPaEPrHGVp7n7yQ_XCSC-6">
          <mxGeometry x="30" width="150" height="30" as="geometry" />
        </mxCell>
        <mxCell id="HPaEPrHGVp7n7yQ_XCSC-9" value="" style="shape=partialRectangle;collapsible=0;dropTarget=0;pointerEvents=0;fillColor=none;top=0;left=0;bottom=0;right=0;points=[[0,0.5],[1,0.5]];portConstraint=eastwest;" vertex="1" parent="HPaEPrHGVp7n7yQ_XCSC-5">
          <mxGeometry y="60" width="180" height="30" as="geometry" />
        </mxCell>
        <mxCell id="HPaEPrHGVp7n7yQ_XCSC-10" value="" style="shape=partialRectangle;connectable=0;fillColor=none;top=0;left=0;bottom=0;right=0;editable=1;overflow=hidden;" vertex="1" parent="HPaEPrHGVp7n7yQ_XCSC-9">
          <mxGeometry width="30" height="30" as="geometry" />
        </mxCell>
        <mxCell id="HPaEPrHGVp7n7yQ_XCSC-11" value="name" style="shape=partialRectangle;connectable=0;fillColor=none;top=0;left=0;bottom=0;right=0;align=left;spacingLeft=6;overflow=hidden;" vertex="1" parent="HPaEPrHGVp7n7yQ_XCSC-9">
          <mxGeometry x="30" width="150" height="30" as="geometry" />
        </mxCell>
        <mxCell id="HPaEPrHGVp7n7yQ_XCSC-12" value="" style="shape=partialRectangle;collapsible=0;dropTarget=0;pointerEvents=0;fillColor=none;top=0;left=0;bottom=0;right=0;points=[[0,0.5],[1,0.5]];portConstraint=eastwest;" vertex="1" parent="HPaEPrHGVp7n7yQ_XCSC-5">
          <mxGeometry y="90" width="180" height="30" as="geometry" />
        </mxCell>
        <mxCell id="HPaEPrHGVp7n7yQ_XCSC-13" value="" style="shape=partialRectangle;connectable=0;fillColor=none;top=0;left=0;bottom=0;right=0;editable=1;overflow=hidden;" vertex="1" parent="HPaEPrHGVp7n7yQ_XCSC-12">
          <mxGeometry width="30" height="30" as="geometry" />
        </mxCell>
        <mxCell id="HPaEPrHGVp7n7yQ_XCSC-14" value="mobile" style="shape=partialRectangle;connectable=0;fillColor=none;top=0;left=0;bottom=0;right=0;align=left;spacingLeft=6;overflow=hidden;" vertex="1" parent="HPaEPrHGVp7n7yQ_XCSC-12">
          <mxGeometry x="30" width="150" height="30" as="geometry" />
        </mxCell>
        <mxCell id="HPaEPrHGVp7n7yQ_XCSC-15" value="" style="shape=partialRectangle;collapsible=0;dropTarget=0;pointerEvents=0;fillColor=none;top=0;left=0;bottom=0;right=0;points=[[0,0.5],[1,0.5]];portConstraint=eastwest;" vertex="1" parent="HPaEPrHGVp7n7yQ_XCSC-5">
          <mxGeometry y="120" width="180" height="30" as="geometry" />
        </mxCell>
        <mxCell id="HPaEPrHGVp7n7yQ_XCSC-16" value="" style="shape=partialRectangle;connectable=0;fillColor=none;top=0;left=0;bottom=0;right=0;editable=1;overflow=hidden;" vertex="1" parent="HPaEPrHGVp7n7yQ_XCSC-15">
          <mxGeometry width="30" height="30" as="geometry" />
        </mxCell>
        <mxCell id="HPaEPrHGVp7n7yQ_XCSC-17" value="email" style="shape=partialRectangle;connectable=0;fillColor=none;top=0;left=0;bottom=0;right=0;align=left;spacingLeft=6;overflow=hidden;" vertex="1" parent="HPaEPrHGVp7n7yQ_XCSC-15">
          <mxGeometry x="30" width="150" height="30" as="geometry" />
        </mxCell>
        <mxCell id="HPaEPrHGVp7n7yQ_XCSC-31" value="" style="shape=partialRectangle;collapsible=0;dropTarget=0;pointerEvents=0;fillColor=none;top=0;left=0;bottom=0;right=0;points=[[0,0.5],[1,0.5]];portConstraint=eastwest;" vertex="1" parent="HPaEPrHGVp7n7yQ_XCSC-5">
          <mxGeometry y="150" width="180" height="30" as="geometry" />
        </mxCell>
        <mxCell id="HPaEPrHGVp7n7yQ_XCSC-32" value="" style="shape=partialRectangle;connectable=0;fillColor=none;top=0;left=0;bottom=0;right=0;editable=1;overflow=hidden;" vertex="1" parent="HPaEPrHGVp7n7yQ_XCSC-31">
          <mxGeometry width="30" height="30" as="geometry" />
        </mxCell>
        <mxCell id="HPaEPrHGVp7n7yQ_XCSC-33" value="gender" style="shape=partialRectangle;connectable=0;fillColor=none;top=0;left=0;bottom=0;right=0;align=left;spacingLeft=6;overflow=hidden;" vertex="1" parent="HPaEPrHGVp7n7yQ_XCSC-31">
          <mxGeometry x="30" width="150" height="30" as="geometry" />
        </mxCell>
        <mxCell id="HPaEPrHGVp7n7yQ_XCSC-34" value="" style="shape=partialRectangle;collapsible=0;dropTarget=0;pointerEvents=0;fillColor=none;top=0;left=0;bottom=0;right=0;points=[[0,0.5],[1,0.5]];portConstraint=eastwest;" vertex="1" parent="HPaEPrHGVp7n7yQ_XCSC-5">
          <mxGeometry y="180" width="180" height="30" as="geometry" />
        </mxCell>
        <mxCell id="HPaEPrHGVp7n7yQ_XCSC-35" value="" style="shape=partialRectangle;connectable=0;fillColor=none;top=0;left=0;bottom=0;right=0;editable=1;overflow=hidden;" vertex="1" parent="HPaEPrHGVp7n7yQ_XCSC-34">
          <mxGeometry width="30" height="30" as="geometry" />
        </mxCell>
        <mxCell id="HPaEPrHGVp7n7yQ_XCSC-36" value="age" style="shape=partialRectangle;connectable=0;fillColor=none;top=0;left=0;bottom=0;right=0;align=left;spacingLeft=6;overflow=hidden;" vertex="1" parent="HPaEPrHGVp7n7yQ_XCSC-34">
          <mxGeometry x="30" width="150" height="30" as="geometry" />
        </mxCell>
        <mxCell id="HPaEPrHGVp7n7yQ_XCSC-37" value="" style="shape=partialRectangle;collapsible=0;dropTarget=0;pointerEvents=0;fillColor=none;top=0;left=0;bottom=0;right=0;points=[[0,0.5],[1,0.5]];portConstraint=eastwest;" vertex="1" parent="HPaEPrHGVp7n7yQ_XCSC-5">
          <mxGeometry y="210" width="180" height="30" as="geometry" />
        </mxCell>
        <mxCell id="HPaEPrHGVp7n7yQ_XCSC-38" value="" style="shape=partialRectangle;connectable=0;fillColor=none;top=0;left=0;bottom=0;right=0;editable=1;overflow=hidden;" vertex="1" parent="HPaEPrHGVp7n7yQ_XCSC-37">
          <mxGeometry width="30" height="30" as="geometry" />
        </mxCell>
        <mxCell id="HPaEPrHGVp7n7yQ_XCSC-39" value="" style="shape=partialRectangle;connectable=0;fillColor=none;top=0;left=0;bottom=0;right=0;align=left;spacingLeft=6;overflow=hidden;" vertex="1" parent="HPaEPrHGVp7n7yQ_XCSC-37">
          <mxGeometry x="30" width="150" height="30" as="geometry" />
        </mxCell>
        <mxCell id="HPaEPrHGVp7n7yQ_XCSC-40" value="Survey" style="shape=table;startSize=30;container=1;collapsible=1;childLayout=tableLayout;fixedRows=1;rowLines=0;fontStyle=1;align=center;resizeLast=1;" vertex="1" parent="1">
          <mxGeometry x="330" y="120" width="180" height="240" as="geometry" />
        </mxCell>
        <mxCell id="HPaEPrHGVp7n7yQ_XCSC-41" value="" style="shape=partialRectangle;collapsible=0;dropTarget=0;pointerEvents=0;fillColor=none;top=0;left=0;bottom=1;right=0;points=[[0,0.5],[1,0.5]];portConstraint=eastwest;" vertex="1" parent="HPaEPrHGVp7n7yQ_XCSC-40">
          <mxGeometry y="30" width="180" height="30" as="geometry" />
        </mxCell>
        <mxCell id="HPaEPrHGVp7n7yQ_XCSC-42" value="PK" style="shape=partialRectangle;connectable=0;fillColor=none;top=0;left=0;bottom=0;right=0;fontStyle=1;overflow=hidden;" vertex="1" parent="HPaEPrHGVp7n7yQ_XCSC-41">
          <mxGeometry width="30" height="30" as="geometry" />
        </mxCell>
        <mxCell id="HPaEPrHGVp7n7yQ_XCSC-43" value="UniqueID" style="shape=partialRectangle;connectable=0;fillColor=none;top=0;left=0;bottom=0;right=0;align=left;spacingLeft=6;fontStyle=5;overflow=hidden;" vertex="1" parent="HPaEPrHGVp7n7yQ_XCSC-41">
          <mxGeometry x="30" width="150" height="30" as="geometry" />
        </mxCell>
        <mxCell id="HPaEPrHGVp7n7yQ_XCSC-44" value="" style="shape=partialRectangle;collapsible=0;dropTarget=0;pointerEvents=0;fillColor=none;top=0;left=0;bottom=0;right=0;points=[[0,0.5],[1,0.5]];portConstraint=eastwest;" vertex="1" parent="HPaEPrHGVp7n7yQ_XCSC-40">
          <mxGeometry y="60" width="180" height="30" as="geometry" />
        </mxCell>
        <mxCell id="HPaEPrHGVp7n7yQ_XCSC-45" value="" style="shape=partialRectangle;connectable=0;fillColor=none;top=0;left=0;bottom=0;right=0;editable=1;overflow=hidden;" vertex="1" parent="HPaEPrHGVp7n7yQ_XCSC-44">
          <mxGeometry width="30" height="30" as="geometry" />
        </mxCell>
        <mxCell id="HPaEPrHGVp7n7yQ_XCSC-46" value="user_id" style="shape=partialRectangle;connectable=0;fillColor=none;top=0;left=0;bottom=0;right=0;align=left;spacingLeft=6;overflow=hidden;" vertex="1" parent="HPaEPrHGVp7n7yQ_XCSC-44">
          <mxGeometry x="30" width="150" height="30" as="geometry" />
        </mxCell>
        <mxCell id="HPaEPrHGVp7n7yQ_XCSC-47" value="" style="shape=partialRectangle;collapsible=0;dropTarget=0;pointerEvents=0;fillColor=none;top=0;left=0;bottom=0;right=0;points=[[0,0.5],[1,0.5]];portConstraint=eastwest;" vertex="1" parent="HPaEPrHGVp7n7yQ_XCSC-40">
          <mxGeometry y="90" width="180" height="30" as="geometry" />
        </mxCell>
        <mxCell id="HPaEPrHGVp7n7yQ_XCSC-48" value="" style="shape=partialRectangle;connectable=0;fillColor=none;top=0;left=0;bottom=0;right=0;editable=1;overflow=hidden;" vertex="1" parent="HPaEPrHGVp7n7yQ_XCSC-47">
          <mxGeometry width="30" height="30" as="geometry" />
        </mxCell>
        <mxCell id="HPaEPrHGVp7n7yQ_XCSC-49" value="Title" style="shape=partialRectangle;connectable=0;fillColor=none;top=0;left=0;bottom=0;right=0;align=left;spacingLeft=6;overflow=hidden;" vertex="1" parent="HPaEPrHGVp7n7yQ_XCSC-47">
          <mxGeometry x="30" width="150" height="30" as="geometry" />
        </mxCell>
        <mxCell id="HPaEPrHGVp7n7yQ_XCSC-50" value="" style="shape=partialRectangle;collapsible=0;dropTarget=0;pointerEvents=0;fillColor=none;top=0;left=0;bottom=0;right=0;points=[[0,0.5],[1,0.5]];portConstraint=eastwest;" vertex="1" parent="HPaEPrHGVp7n7yQ_XCSC-40">
          <mxGeometry y="120" width="180" height="30" as="geometry" />
        </mxCell>
        <mxCell id="HPaEPrHGVp7n7yQ_XCSC-51" value="" style="shape=partialRectangle;connectable=0;fillColor=none;top=0;left=0;bottom=0;right=0;editable=1;overflow=hidden;" vertex="1" parent="HPaEPrHGVp7n7yQ_XCSC-50">
          <mxGeometry width="30" height="30" as="geometry" />
        </mxCell>
        <mxCell id="HPaEPrHGVp7n7yQ_XCSC-52" value="survey_type_id" style="shape=partialRectangle;connectable=0;fillColor=none;top=0;left=0;bottom=0;right=0;align=left;spacingLeft=6;overflow=hidden;" vertex="1" parent="HPaEPrHGVp7n7yQ_XCSC-50">
          <mxGeometry x="30" width="150" height="30" as="geometry" />
        </mxCell>
        <mxCell id="HPaEPrHGVp7n7yQ_XCSC-53" value="" style="shape=partialRectangle;collapsible=0;dropTarget=0;pointerEvents=0;fillColor=none;top=0;left=0;bottom=0;right=0;points=[[0,0.5],[1,0.5]];portConstraint=eastwest;" vertex="1" parent="HPaEPrHGVp7n7yQ_XCSC-40">
          <mxGeometry y="150" width="180" height="30" as="geometry" />
        </mxCell>
        <mxCell id="HPaEPrHGVp7n7yQ_XCSC-54" value="" style="shape=partialRectangle;connectable=0;fillColor=none;top=0;left=0;bottom=0;right=0;editable=1;overflow=hidden;" vertex="1" parent="HPaEPrHGVp7n7yQ_XCSC-53">
          <mxGeometry width="30" height="30" as="geometry" />
        </mxCell>
        <mxCell id="HPaEPrHGVp7n7yQ_XCSC-55" value="created_at" style="shape=partialRectangle;connectable=0;fillColor=none;top=0;left=0;bottom=0;right=0;align=left;spacingLeft=6;overflow=hidden;" vertex="1" parent="HPaEPrHGVp7n7yQ_XCSC-53">
          <mxGeometry x="30" width="150" height="30" as="geometry" />
        </mxCell>
        <mxCell id="HPaEPrHGVp7n7yQ_XCSC-56" value="" style="shape=partialRectangle;collapsible=0;dropTarget=0;pointerEvents=0;fillColor=none;top=0;left=0;bottom=0;right=0;points=[[0,0.5],[1,0.5]];portConstraint=eastwest;" vertex="1" parent="HPaEPrHGVp7n7yQ_XCSC-40">
          <mxGeometry y="180" width="180" height="30" as="geometry" />
        </mxCell>
        <mxCell id="HPaEPrHGVp7n7yQ_XCSC-57" value="" style="shape=partialRectangle;connectable=0;fillColor=none;top=0;left=0;bottom=0;right=0;editable=1;overflow=hidden;" vertex="1" parent="HPaEPrHGVp7n7yQ_XCSC-56">
          <mxGeometry width="30" height="30" as="geometry" />
        </mxCell>
        <mxCell id="HPaEPrHGVp7n7yQ_XCSC-58" value="updated_at" style="shape=partialRectangle;connectable=0;fillColor=none;top=0;left=0;bottom=0;right=0;align=left;spacingLeft=6;overflow=hidden;" vertex="1" parent="HPaEPrHGVp7n7yQ_XCSC-56">
          <mxGeometry x="30" width="150" height="30" as="geometry" />
        </mxCell>
        <mxCell id="HPaEPrHGVp7n7yQ_XCSC-59" value="" style="shape=partialRectangle;collapsible=0;dropTarget=0;pointerEvents=0;fillColor=none;top=0;left=0;bottom=0;right=0;points=[[0,0.5],[1,0.5]];portConstraint=eastwest;" vertex="1" parent="HPaEPrHGVp7n7yQ_XCSC-40">
          <mxGeometry y="210" width="180" height="30" as="geometry" />
        </mxCell>
        <mxCell id="HPaEPrHGVp7n7yQ_XCSC-60" value="" style="shape=partialRectangle;connectable=0;fillColor=none;top=0;left=0;bottom=0;right=0;editable=1;overflow=hidden;" vertex="1" parent="HPaEPrHGVp7n7yQ_XCSC-59">
          <mxGeometry width="30" height="30" as="geometry" />
        </mxCell>
        <mxCell id="HPaEPrHGVp7n7yQ_XCSC-61" value="" style="shape=partialRectangle;connectable=0;fillColor=none;top=0;left=0;bottom=0;right=0;align=left;spacingLeft=6;overflow=hidden;" vertex="1" parent="HPaEPrHGVp7n7yQ_XCSC-59">
          <mxGeometry x="30" width="150" height="30" as="geometry" />
        </mxCell>
        <mxCell id="HPaEPrHGVp7n7yQ_XCSC-64" style="edgeStyle=orthogonalEdgeStyle;rounded=0;orthogonalLoop=1;jettySize=auto;html=1;exitX=1;exitY=0.5;exitDx=0;exitDy=0;entryX=0;entryY=0.5;entryDx=0;entryDy=0;jumpSize=6;strokeWidth=2;" edge="1" parent="1" source="HPaEPrHGVp7n7yQ_XCSC-6" target="HPaEPrHGVp7n7yQ_XCSC-44">
          <mxGeometry relative="1" as="geometry" />
        </mxCell>
        <mxCell id="HPaEPrHGVp7n7yQ_XCSC-65" value="survey_types" style="shape=table;startSize=30;container=1;collapsible=1;childLayout=tableLayout;fixedRows=1;rowLines=0;fontStyle=1;align=center;resizeLast=1;" vertex="1" parent="1">
          <mxGeometry x="610" y="40" width="180" height="120" as="geometry" />
        </mxCell>
        <mxCell id="HPaEPrHGVp7n7yQ_XCSC-66" value="" style="shape=partialRectangle;collapsible=0;dropTarget=0;pointerEvents=0;fillColor=none;top=0;left=0;bottom=1;right=0;points=[[0,0.5],[1,0.5]];portConstraint=eastwest;" vertex="1" parent="HPaEPrHGVp7n7yQ_XCSC-65">
          <mxGeometry y="30" width="180" height="30" as="geometry" />
        </mxCell>
        <mxCell id="HPaEPrHGVp7n7yQ_XCSC-67" value="PK" style="shape=partialRectangle;connectable=0;fillColor=none;top=0;left=0;bottom=0;right=0;fontStyle=1;overflow=hidden;" vertex="1" parent="HPaEPrHGVp7n7yQ_XCSC-66">
          <mxGeometry width="30" height="30" as="geometry" />
        </mxCell>
        <mxCell id="HPaEPrHGVp7n7yQ_XCSC-68" value="UniqueID" style="shape=partialRectangle;connectable=0;fillColor=none;top=0;left=0;bottom=0;right=0;align=left;spacingLeft=6;fontStyle=5;overflow=hidden;" vertex="1" parent="HPaEPrHGVp7n7yQ_XCSC-66">
          <mxGeometry x="30" width="150" height="30" as="geometry" />
        </mxCell>
        <mxCell id="HPaEPrHGVp7n7yQ_XCSC-69" value="" style="shape=partialRectangle;collapsible=0;dropTarget=0;pointerEvents=0;fillColor=none;top=0;left=0;bottom=0;right=0;points=[[0,0.5],[1,0.5]];portConstraint=eastwest;" vertex="1" parent="HPaEPrHGVp7n7yQ_XCSC-65">
          <mxGeometry y="60" width="180" height="30" as="geometry" />
        </mxCell>
        <mxCell id="HPaEPrHGVp7n7yQ_XCSC-70" value="" style="shape=partialRectangle;connectable=0;fillColor=none;top=0;left=0;bottom=0;right=0;editable=1;overflow=hidden;" vertex="1" parent="HPaEPrHGVp7n7yQ_XCSC-69">
          <mxGeometry width="30" height="30" as="geometry" />
        </mxCell>
        <mxCell id="HPaEPrHGVp7n7yQ_XCSC-71" value="name" style="shape=partialRectangle;connectable=0;fillColor=none;top=0;left=0;bottom=0;right=0;align=left;spacingLeft=6;overflow=hidden;" vertex="1" parent="HPaEPrHGVp7n7yQ_XCSC-69">
          <mxGeometry x="30" width="150" height="30" as="geometry" />
        </mxCell>
        <mxCell id="HPaEPrHGVp7n7yQ_XCSC-72" value="" style="shape=partialRectangle;collapsible=0;dropTarget=0;pointerEvents=0;fillColor=none;top=0;left=0;bottom=0;right=0;points=[[0,0.5],[1,0.5]];portConstraint=eastwest;" vertex="1" parent="HPaEPrHGVp7n7yQ_XCSC-65">
          <mxGeometry y="90" width="180" height="30" as="geometry" />
        </mxCell>
        <mxCell id="HPaEPrHGVp7n7yQ_XCSC-73" value="" style="shape=partialRectangle;connectable=0;fillColor=none;top=0;left=0;bottom=0;right=0;editable=1;overflow=hidden;" vertex="1" parent="HPaEPrHGVp7n7yQ_XCSC-72">
          <mxGeometry width="30" height="30" as="geometry" />
        </mxCell>
        <mxCell id="HPaEPrHGVp7n7yQ_XCSC-74" value="description" style="shape=partialRectangle;connectable=0;fillColor=none;top=0;left=0;bottom=0;right=0;align=left;spacingLeft=6;overflow=hidden;" vertex="1" parent="HPaEPrHGVp7n7yQ_XCSC-72">
          <mxGeometry x="30" width="150" height="30" as="geometry" />
        </mxCell>
        <mxCell id="HPaEPrHGVp7n7yQ_XCSC-87" style="edgeStyle=orthogonalEdgeStyle;rounded=0;jumpSize=6;orthogonalLoop=1;jettySize=auto;html=1;exitX=0;exitY=0.5;exitDx=0;exitDy=0;entryX=1;entryY=0.5;entryDx=0;entryDy=0;strokeWidth=2;" edge="1" parent="1" source="HPaEPrHGVp7n7yQ_XCSC-66" target="HPaEPrHGVp7n7yQ_XCSC-50">
          <mxGeometry relative="1" as="geometry" />
        </mxCell>
      </root>
    </mxGraphModel>
  </diagram>
</mxfile>
